<?xml version="1.0" encoding="utf-8"?>
<!-- Generator: Adobe Illustrator 26.0.1, SVG Export Plug-In . SVG Version: 6.00 Build 0)  -->
<svg version="1.1" id="Layer_1" xmlns="http://www.w3.org/2000/svg" xmlns:xlink="http://www.w3.org/1999/xlink" x="0px" y="0px"
	 viewBox="0 0 5000 2821.66" style="enable-background:new 0 0 5000 2821.66;" xml:space="preserve">
<style type="text/css">
	.st0{fill:#2D2E74;}
	.st1{fill:#EC2227;}
</style>
<g id="layer-MC0_00000021093038580568299300000008309407483023083957_" transform="matrix(0.26458333,0,0,0.26458334,220.00001,0)">
	<g>
		<path id="path1_00000002361420537444989230000000242388793063956618_" class="st1" d="M10574.34,4753.46h250.45v641.74
			c0,74.34,24.03,136.75,72.27,187.36c48.03,50.54,108.77,75.9,181.88,75.9c75.56,0,137.14-25.02,184.6-74.96
			c47.59-49.99,71.32-123.1,71.32-219.42V4058.77h250.47v1305.32c0,165.75-48.15,298.02-144.44,396.75
			c-96.27,98.71-216.96,148.08-361.95,148.08c-142.62,0-262.39-49.71-359.23-149.02c-96.94-99.35-145.36-220.94-145.36-364.69
			V4753.46z"/>
	</g>
	<g>
		<path id="path3_00000114062509754079328980000003889820607270854800_" class="st1" d="M11837.65,4058.77h250.47v1038.4
			c0,42.72,9.74,76.18,29.21,100.6c19.49,24.35,46.9,36.55,82.3,36.55h45.68v250.45h-45.68c-107.27,0-194.47-36.27-261.42-108.77
			c-67.07-72.5-100.55-165.48-100.55-278.82V4058.77z"/>
	</g>
	<g>
		<path id="path5_00000034785032478663373950000009577363689043699634_" class="st1" d="M12939.98,5484.76h-731.29v-250.44h731.29
			V5484.76z"/>
	</g>
	<g>
		<path id="path7_00000065074860200407867810000012157616845012389272_" class="st1" d="M13634.67,5484.76h-731.29v-250.44h731.29
			V5484.76z"/>
	</g>
	<g>
		<path id="path9_00000110441625896229707160000011723212240152383420_" class="st1" d="M13961.94,5027.7
			c0,57.31,20.14,106.03,60.32,146.26c40.21,40.21,89,60.37,146.33,60.37c56,0,104.14-20.44,144.44-61.27
			c40.18-40.85,60.23-89.27,60.23-145.36c0-56.04-20.05-104.46-60.23-145.31c-40.3-40.83-88.44-61.27-144.44-61.27
			c-57.33,0-106.12,20.11-146.33,60.32C13982.07,4921.68,13961.94,4970.44,13961.94,5027.7 M13598.17,5484.75v-250.42h204.78
			c-61.04-52.4-91.48-120.71-91.48-204.78c0-126.74,44.83-234.93,134.41-324.51c89.57-89.57,197.1-134.38,322.71-134.38
			c125.52,0,233.05,44.81,322.62,134.38c89.57,89.57,134.41,197.76,134.41,324.51v98.71c0,31.71,8.49,57.31,25.62,76.8
			c17.03,19.52,40.21,29.27,69.44,29.27h53.05v250.42h-53.05c-115.76,0-193.23-48.12-232.19-144.42
			c-84.07,96.29-190.77,144.42-319.88,144.42H13598.17z"/>
	</g>
	<g>
		<path id="path11_00000007401815360413486780000015705700635647345597_" class="st1" d="M15181.35,5647.49
			c25.52-26.86,57.21-40.25,95.05-40.25c37.74,0,70.1,13.1,96.87,39.31c26.86,26.19,40.28,58.2,40.28,95.99
			c0,37.74-13.42,70.08-40.28,96.89c-26.77,26.77-59.12,40.21-96.87,40.21c-37.84,0-69.78-13.44-95.99-40.21
			c-26.21-26.81-39.24-59.15-39.24-96.89C15141.17,5704.75,15154.49,5673.06,15181.35,5647.49 M14841.24,5647.49
			c25.64-26.86,57.33-40.25,95.14-40.25c37.74,0,69.99,13.1,96.84,39.31c26.79,26.19,40.23,58.2,40.23,95.99
			c0,37.74-13.44,70.08-40.23,96.89c-26.86,26.77-59.1,40.21-96.84,40.21c-37.81,0-69.8-13.44-95.97-40.21
			c-26.21-26.81-39.35-59.15-39.35-96.89C14801.06,5704.75,14814.48,5673.06,14841.24,5647.49 M14737.1,5234.31h131.58
			c36.59,0,64.6-12.47,84.16-37.51c19.49-24.95,29.23-58.16,29.23-99.63v-526.53h252.26v526.53c0,113.37-34.15,206.33-102.37,278.82
			c-68.26,72.52-156.04,108.77-263.29,108.77h-131.58V5234.31z"/>
	</g>
	<g>
		<path id="path13_00000003098799063749631080000001332854351099790992_" class="st1" d="M15707.79,5024.06
			c0,62.14,20.71,112.73,62.14,151.76c41.43,39.01,94.5,58.5,159.08,58.5h191.9v-195.65c0-64.6-19.1-117.63-57.49-159.03
			c-38.41-41.43-88.15-62.21-149.04-62.21c-57.33,0-106.05,20.16-146.24,60.37C15727.93,4918.03,15707.79,4966.8,15707.79,5024.06
			 M15590.78,4700.45c88.91-88.95,196.84-133.46,323.59-133.46c135.33,0,245.59,46.03,330.9,138.04
			c85.34,92.04,127.98,210.54,127.98,355.58v372.97c0,137.72-41.43,251.64-124.28,341.86c-82.94,90.19-194.47,135.3-334.61,135.3
			c-75.6,0-149.64-16.46-222.09-49.37c-72.54-32.91-130.15-78.02-172.82-135.3l175.56-164.53c24.3,29.25,56.39,52.7,95.9,70.38
			c39.63,17.65,79.54,26.54,119.84,26.54c60.92,0,110.56-17.12,148.97-51.21c38.39-34.15,58.83-74.96,61.17-122.48H15929
			c-134.11,0-246.19-44.17-336.43-132.56c-90.22-88.33-135.23-197.72-135.23-328.14
			C15457.34,4897.32,15501.81,4789.45,15590.78,4700.45"/>
	</g>
	<g>
		<path id="path15_00000039847334238853330790000018046573169710648740_" class="st0" d="M10762.27,6330.31
			c0,24.58,8.61,45.55,25.91,62.81c17.31,17.31,38.2,25.96,62.78,25.96c24.6,0,45.71-8.65,63.11-25.96
			c17.49-17.26,26.28-38.23,26.28-62.81s-8.79-45.64-26.28-63.13c-17.4-17.44-38.5-26.19-63.11-26.19
			c-24.58,0-45.48,8.75-62.78,26.19C10770.88,6284.67,10762.27,6305.73,10762.27,6330.31 M10602.62,6601.19v-201.7
			c0-28.84,8.98-52.06,27.04-69.73c18.07-17.7,41.33-26.54,69.71-26.54h12.66c5.41-33.44,21.29-61.29,47.59-83.57
			c26.28-22.28,56.82-33.44,91.35-33.44c40.02,0,73.97,14.06,102.07,42.09c27.99,28.03,42.07,62.05,42.07,102v43.8
			c0,13.46,3.59,24.3,10.89,32.57c7.39,8.29,17.51,12.4,30.56,12.4h15.6v55.33h-15.6c-19.95,0-36.23-5.02-49-14.98
			c-12.68-9.99-21.1-23.84-25.34-41.47c-12.68,17.26-28.77,31-48.45,41.17c-19.59,10.17-40.48,15.28-62.81,15.28
			c-34.52,0-65.06-11.02-91.35-33.14c-26.31-22.09-42.37-49.85-48.15-83.29h-12.11c-27.62,0-41.43,13.81-41.43,41.52v201.7H10602.62
			z"/>
	</g>
	<g>
		<path id="path17_00000010292214118126917790000016125922229546895769_" class="st0" d="M11177.19,6532.62
			c6.17-6.54,13.9-9.78,23.08-9.78c8.91,0,16.66,3.25,23.36,9.78c6.72,6.54,10.13,14.41,10.13,23.64c0,8.86-3.41,16.62-10.13,23.34
			c-6.7,6.7-14.45,10.1-23.36,10.1c-9.18,0-17.01-3.27-23.36-9.83c-6.33-6.54-9.46-14.38-9.46-23.61
			C11167.46,6547.03,11170.68,6539.16,11177.19,6532.62 M11079.22,6532.62c6.51-6.54,14.45-9.78,23.66-9.78
			c8.86,0,16.62,3.25,23.34,9.78c6.72,6.54,10.13,14.41,10.13,23.64c0,8.86-3.41,16.62-10.13,23.34c-6.72,6.7-14.48,10.1-23.34,10.1
			c-9.21,0-17.15-3.41-23.66-10.1c-6.54-6.72-9.76-14.48-9.76-23.34C11069.46,6547.03,11072.68,6539.16,11079.22,6532.62
			 M11040.62,6419.07h38.02c29.99,0,45.02-19.38,45.02-58.2v-174.64h55.33v174.64c0,38.83,15.14,58.2,45.5,58.2h38.02v55.35h-38.02
			c-33,0-57.4-13.07-73.21-39.22c-15.79,26.14-39.91,39.22-72.63,39.22h-38.02V6419.07z"/>
	</g>
	<g>
		<path id="path19_00000145739929996136095360000003761793217701344670_" class="st0" d="M11372.03,6393.12
			c17.31,17.31,38.2,25.96,62.81,25.96s45.59-8.65,62.81-25.96c17.31-17.26,26.01-38.23,26.01-62.81s-8.7-45.64-26.01-63.13
			c-17.21-17.45-38.2-26.19-62.81-26.19s-45.5,8.75-62.81,26.19c-17.31,17.49-25.92,38.55-25.92,63.13
			S11354.72,6375.86,11372.03,6393.12 M11250.97,6419.08h86.44c-14.18-9.6-25.52-22.19-33.95-37.74
			c-8.54-15.56-12.68-32.59-12.68-51.02c0-39.95,14.08-73.97,42.28-102c28.28-28.03,62.23-42.09,101.77-42.09
			c39.52,0,73.49,14.06,101.75,42.09c28.22,28.03,42.39,62.05,42.39,102v43.8c0,13.46,3.59,24.3,10.89,32.57
			c7.36,8.29,17.49,12.41,30.54,12.41h15.6v55.33h-15.6c-19.95,0-36.32-5.02-49-14.98c-12.68-9.99-21.08-23.84-25.34-41.47
			c-12.68,17.26-28.77,31-48.42,41.17c-19.58,10.17-40.48,15.28-62.81,15.28h-183.86V6419.08z"/>
	</g>
	<g>
		<path id="path21_00000005969585437441414190000013930236038129793666_" class="st0" d="M11735.7,6419.08h182.71
			c15.42,0,28.1-5.48,38.04-16.41c10.01-10.98,15.03-26.81,15.03-47.57v-17.31c0-29.18-7.96-52.63-23.64-70.33
			c-15.81-17.63-37.26-26.47-64.6-26.47c-43.43,0-92.59,33.05-147.55,99.1V6419.08z M11624.47,6474.41v-55.33h56.46v-232.86h54.78
			v87.02c50.79-58.02,101.86-87.02,153.3-87.02c40.78,0,73.88,14.06,99.4,42.09c25.66,28.03,38.41,64.35,38.41,108.91V6362
			c0,38.07,14.36,57.08,43.22,57.08h15.51v55.33h-15.51c-34.25,0-58.46-14.43-72.63-43.22c-17.68,28.79-43.98,43.22-78.99,43.22
			H11624.47z"/>
	</g>
	<g>
		<path id="path23_00000072253098216874438180000006540500928594117769_" class="st0" d="M12210.67,6097.46
			c6.54-6.54,14.48-9.78,23.64-9.78c9.3,0,17.12,3.25,23.66,9.78s9.83,14.41,9.83,23.64c0,9.23-3.29,17.08-9.83,23.61
			c-6.54,6.56-14.36,9.83-23.66,9.83c-9.16,0-17.1-3.27-23.64-9.83c-6.51-6.54-9.73-14.38-9.73-23.61
			C12200.93,6111.86,12204.15,6103.99,12210.67,6097.46 M12104.09,6121.09c0-9.23,3.13-17.1,9.55-23.64
			c6.35-6.54,14.08-9.78,23.27-9.78c9.25,0,17.12,3.25,23.64,9.78c6.51,6.54,9.85,14.41,9.85,23.64c0,9.23-3.34,17.08-9.85,23.61
			c-6.51,6.56-14.38,9.83-23.64,9.83c-9.18,0-16.92-3.27-23.27-9.83C12107.22,6138.17,12104.09,6130.32,12104.09,6121.09
			 M12074.1,6474.41v-55.33h38.02c30.36,0,45.59-19.4,45.59-58.23v-174.63h54.75v174.63c0,38.83,15.14,58.23,45.5,58.23h38.02v55.33
			h-38.02c-32.61,0-56.85-13.05-72.63-39.22c-16.55,26.17-40.85,39.22-73.21,39.22H12074.1z"/>
	</g>
	<g>
		<path id="path25_00000170242515553739312530000003991311517664940183_" class="st0" d="M12284.45,6419.08h15.6
			c30.26,0,45.48-19.38,45.48-58.2v-336.06h55.35v336.06c0,34.18-9,61.66-27.04,82.42c-18.07,20.76-42.67,31.12-73.79,31.12h-15.6
			V6419.08z"/>
	</g>
	<g>
		<path id="path27_00000115485093933088486250000004631353245040851333_" class="st0" d="M12551.93,6474.41h-54.77v-449.59h54.77
			V6474.41z"/>
	</g>
	<g>
		<path id="path29_00000155142781476299654640000005038908243383641014_" class="st0" d="M12866.58,6393.72
			c17.7,16.89,40.94,25.36,69.71,25.36h82.46v-83.01c0-28.42-8.22-51.67-24.76-69.76c-16.57-18.04-38.2-27.09-65.18-27.09
			c-24.58,0-45.57,8.65-63.08,25.96c-17.49,17.26-26.19,38.39-26.19,63.36C12839.54,6355.47,12848.54,6377.18,12866.58,6393.72
			 M12826.86,6226.55c28.01-28.03,62.05-42.07,101.96-42.07c42.67,0,77.56,14.52,104.62,43.54c27.13,29,40.67,66.35,40.67,112.08
			v118.76c0,41.84-12.87,76.82-38.59,104.88c-25.82,28.03-60.34,42.09-103.75,42.09c-24.23,0-47.41-5.11-69.5-15.28
			c-22.05-10.17-39.84-24.12-53.25-41.79l38.57-36.32c9.18,11.9,21.29,21.22,36.32,27.99c14.94,6.72,30.56,10.08,46.72,10.08
			c25.36,0,45.78-7.34,61.38-21.91c15.54-14.59,24.23-32.68,26.21-54.18h-81.91c-43.8,0-80.11-13.85-108.86-41.52
			c-28.84-27.66-43.22-62.44-43.22-104.35C12784.21,6288.59,12798.39,6254.6,12826.86,6226.55"/>
	</g>
	<g>
		<path id="path31_00000031181514117580966120000009153561245944746161_" class="st0" d="M13466.04,6121.1
			c0-9.23,3.13-17.12,9.46-23.64c6.35-6.54,14.18-9.8,23.36-9.8c9.28,0,17.12,3.27,23.64,9.8c6.54,6.51,9.85,14.41,9.85,23.64
			s-3.31,17.08-9.85,23.59c-6.51,6.58-14.36,9.85-23.64,9.85c-9.18,0-17.01-3.27-23.36-9.85
			C13469.17,6138.18,13466.04,6130.33,13466.04,6121.1 M13366.37,6121.1c0-9.23,3.22-17.12,9.74-23.64
			c6.51-6.54,14.38-9.8,23.64-9.8c8.79,0,16.66,3.27,23.36,9.8c6.72,6.51,10.03,14.41,10.03,23.64s-3.31,17.08-10.03,23.59
			c-6.7,6.58-14.57,9.85-23.36,9.85c-9.25,0-17.12-3.27-23.64-9.85C13369.59,6138.18,13366.37,6130.33,13366.37,6121.1
			 M13342.71,6330.3c0,24.6,8.61,45.55,25.94,62.81c17.31,17.31,38.2,25.96,62.78,25.96c24.58,0,45.59-8.65,62.81-25.96
			c17.31-17.26,25.98-38.2,25.98-62.81v-89.32h-88.79c-24.58,0-45.48,8.75-62.78,26.19
			C13351.31,6284.67,13342.71,6305.72,13342.71,6330.3 M13330.05,6228.3c27.99-28.03,61.84-42.07,101.38-42.07h144.14v144.07
			c0,39.98-14.11,73.97-42.09,102c-28.47,28.05-62.42,42.12-102.05,42.12c-39.54,0-73.49-14.06-101.68-42.12
			c-28.26-28.03-42.37-62.02-42.37-102C13287.38,6290.35,13301.58,6256.33,13330.05,6228.3"/>
	</g>
	<g>
		<path id="path33_00000152978339832571510100000008218777294852942503_" class="st0" d="M13580.11,6547.61
			c8.05,2.69,15.97,4.03,23.64,4.03c21.47,0,36.8-6.35,45.8-19.01c9.07-12.68,13.6-32.5,13.6-59.35v-287.06l55.35-0.58v288.19
			c0,43.04-9.76,75.81-29.14,98.27c-19.4,22.49-47.39,33.72-83.89,33.72c-14.57,0-28.19-2.3-40.87-6.9L13580.11,6547.61z"/>
	</g>
	<g>
		<path id="path35_00000181802013627297257540000014061629436926858678_" class="st0" d="M13802.09,6024.82h54.75v336.06
			c0,38.83,15.14,58.2,45.48,58.2h14.38v55.33h-14.38c-31.09,0-55.6-10.36-73.46-31.12c-17.88-20.76-26.77-48.24-26.77-82.42
			V6024.82z"/>
	</g>
	<g>
		<path id="path37_00000086664461742969728290000008863523922137881504_" class="st0" d="M14076.94,6555.69
			c0-9.21,3.38-17.21,10.1-23.94c6.72-6.74,14.87-10.1,24.51-10.1c9.16,0,17.31,3.36,24.21,10.1c6.9,6.72,10.31,14.73,10.31,23.94
			c0,9.6-3.41,17.74-10.31,24.49c-6.9,6.72-15.05,10.08-24.21,10.08c-9.64,0-17.79-3.36-24.51-10.08
			C14080.33,6573.44,14076.94,6565.29,14076.94,6555.69 M13905.18,6474.4v-55.33h304.92v-39.77c-0.37-42.28-13.23-75.9-38.59-100.87
			c-25.43-24.97-58.8-37.44-100.34-37.44h-116.98v-54.77h119.93c54.96,0,100.32,17.79,136.29,53.3
			c35.93,35.56,54.08,81.2,54.48,136.89l0.55,42.67h49v55.33H13905.18z"/>
	</g>
	<g>
		<path id="path39_00000092423465091900691090000014121374888595904421_" class="st0" d="M14432.57,6097.46
			c6.51-6.54,14.48-9.78,23.64-9.78c9.27,0,17.12,3.25,23.66,9.78c6.51,6.54,9.8,14.41,9.8,23.64c0,9.23-3.29,17.08-9.8,23.61
			c-6.54,6.56-14.38,9.83-23.66,9.83c-9.16,0-17.12-3.27-23.64-9.83c-6.54-6.54-9.76-14.38-9.76-23.61
			C14422.81,6111.86,14426.03,6103.99,14432.57,6097.46 M14325.96,6121.09c0-9.23,3.13-17.1,9.55-23.64
			c6.35-6.54,14.11-9.78,23.27-9.78c9.27,0,17.12,3.25,23.64,9.78c6.54,6.54,9.85,14.41,9.85,23.64c0,9.23-3.31,17.08-9.85,23.61
			c-6.51,6.56-14.36,9.83-23.64,9.83c-9.16,0-16.92-3.27-23.27-9.83C14329.09,6138.17,14325.96,6130.32,14325.96,6121.09
			 M14295.97,6474.41v-55.33h38.04c30.36,0,45.57-19.4,45.57-58.23v-174.63h54.78v174.63c0,38.83,15.12,58.23,45.5,58.23h38.02
			v55.33h-38.02c-32.63,0-56.85-13.05-72.66-39.22c-16.55,26.17-40.85,39.22-73.19,39.22H14295.97z"/>
	</g>
	<g>
		<path id="path41_00000170962324175235996040000016411642310069222335_" class="st0" d="M14506.33,6419.08h16.75
			c30.36,0,45.48-19.38,45.48-58.2v-336.06h54.77v336.06c0,38.83,15.21,58.2,45.57,58.2h16.66v55.33h-16.66
			c-32.7,0-56.92-13.05-72.63-39.19c-16.55,26.14-40.94,39.19-73.19,39.19h-16.75V6419.08z"/>
	</g>
	<g>
		<path id="path43_00000072266925944992830860000008482198106883259286_" class="st0" d="M14674.11,6419.08h15.63
			c30.24,0,45.48-19.38,45.48-58.2v-336.06h55.35v336.06c0,34.18-9,61.66-27.07,82.42c-18.07,20.76-42.67,31.12-73.76,31.12h-15.63
			V6419.08z"/>
	</g>
	<g>
		<path id="path45_00000137114590990428081230000007525503909001116334_" class="st0" d="M15242.35,6121.1
			c0-9.23,3.22-17.12,9.55-23.64c6.33-6.54,14.08-9.8,23.29-9.8c9.25,0,17.1,3.27,23.64,9.8c6.51,6.51,9.83,14.41,9.83,23.64
			s-3.31,17.08-9.83,23.59c-6.54,6.58-14.38,9.85-23.64,9.85c-9.21,0-16.96-3.27-23.29-9.85
			C15245.57,6138.18,15242.35,6130.33,15242.35,6121.1 M15154.78,6097.46c6.54-6.54,14.2-9.8,23.06-9.8c9.21,0,17.12,3.27,23.84,9.8
			c6.72,6.51,10.13,14.41,10.13,23.64s-3.41,17.08-10.13,23.59c-6.72,6.58-14.64,9.85-23.84,9.85c-8.86,0-16.52-3.27-23.06-9.85
			c-6.54-6.51-9.83-14.36-9.83-23.59S15148.24,6103.98,15154.78,6097.46 M15025.12,6243.86h55.33v61.1
			c0,38.41,9.55,67.06,28.75,85.89c19.22,18.8,48.61,28.22,88.26,28.22h93.32c38.41,0,57.61-22.28,57.61-66.86v-165.98h54.75v174.63
			c0,38.83,14.68,58.2,43.91,58.2h16.06v55.35h-16.06c-34.61,0-59.22-13.62-73.88-40.92c-18.07,27.3-45.5,40.92-82.39,40.92h-93.32
			c-55.33,0-97.9-14.82-127.71-44.37c-29.78-29.6-44.62-71.32-44.62-125.08V6243.86z"/>
	</g>
	<g>
		<path id="path47_00000090290507291144418770000014390018276378775971_" class="st0" d="M15602.72,6119.92
			c0-9.6,3.22-17.79,9.74-24.49c6.54-6.72,14.66-10.08,24.21-10.08c9.67,0,17.79,3.36,24.49,10.08c6.72,6.7,10.13,14.89,10.13,24.49
			c0,9.6-3.31,17.7-9.83,24.21c-6.9,6.9-15.12,10.4-24.79,10.4c-9.55,0-17.68-3.41-24.21-10.13
			C15605.94,6137.69,15602.72,6129.52,15602.72,6119.92 M15549.65,6330.32c0,24.58,8.61,45.55,25.91,62.81
			c17.31,17.31,38.3,25.96,62.9,25.96h88.72v-88.77c0-24.97-8.61-46.12-25.92-63.43c-17.31-17.26-38.2-25.91-62.81-25.91
			s-45.59,8.75-62.9,26.19C15558.25,6284.68,15549.65,6305.72,15549.65,6330.32 M15451.67,6474.41v-55.33h97.42
			c-15.42-10.75-27.62-24.69-36.62-41.82c-9.07-17.08-13.53-35.6-13.53-55.6c0-37.28,13.44-69.14,40.3-95.67
			c26.95-26.54,59.98-39.77,99.22-39.77c40.67,0,74.91,14.22,102.53,42.65c27.71,28.42,41.52,63.61,41.52,105.45v84.76h56.48v55.33
			H15451.67z"/>
	</g>
	<g>
		<path id="path49_00000131331008870166702810000002359729312728858252_" class="st0" d="M15964,6532.62
			c6.17-6.54,13.9-9.78,23.08-9.78c8.88,0,16.66,3.25,23.36,9.78c6.72,6.54,10.13,14.41,10.13,23.64c0,8.86-3.41,16.62-10.13,23.34
			c-6.7,6.7-14.48,10.1-23.36,10.1c-9.18,0-17.03-3.27-23.38-9.83c-6.33-6.54-9.44-14.38-9.44-23.61
			C15954.27,6547.03,15957.49,6539.16,15964,6532.62 M15866.01,6532.62c6.54-6.54,14.48-9.78,23.66-9.78
			c8.88,0,16.64,3.25,23.36,9.78c6.72,6.54,10.13,14.41,10.13,23.64c0,8.86-3.41,16.62-10.13,23.34c-6.72,6.7-14.48,10.1-23.36,10.1
			c-9.18,0-17.12-3.41-23.66-10.1c-6.51-6.72-9.74-14.48-9.74-23.34C15856.27,6547.03,15859.5,6539.16,15866.01,6532.62
			 M15827.41,6419.07h38.04c29.99,0,45.02-19.38,45.02-58.2v-174.64h55.33v174.64c0,38.83,15.12,58.2,45.5,58.2h38.02v55.35h-38.02
			c-33,0-57.4-13.07-73.21-39.22c-15.79,26.14-39.91,39.22-72.63,39.22h-38.04V6419.07z"/>
	</g>
	<g>
		<path id="path51_00000168806081002604027140000012128145586290709645_" class="st0" d="M16192.8,6119.92
			c0-9.6,3.31-17.79,9.83-24.49c6.54-6.72,14.57-10.08,24.21-10.08c9.57,0,17.79,3.36,24.51,10.08c6.7,6.7,10.1,14.89,10.1,24.49
			c0,9.6-3.29,17.7-9.83,24.21c-6.91,6.9-15.21,10.4-24.79,10.4c-9.64,0-17.67-3.41-24.21-10.13
			C16196.12,6137.69,16192.8,6129.52,16192.8,6119.92 M16037.78,6474.41v-55.33h97.42c-15.42-10.75-27.62-24.97-36.62-42.67
			c-9.07-17.7-13.51-36.5-13.51-56.48c0-38.8,13.26-70.82,39.72-95.97c26.58-25.18,59.95-37.74,100.34-37.74
			c40.3,0,74.54,13.62,102.53,40.9l-30.56,42.09c-20.69-18.83-43.96-28.24-69.69-28.24c-24.97,0-46.17,8.15-63.38,24.51
			c-17.31,16.29-26.01,36.59-26.01,60.8c0,24.97,8.81,46.67,26.31,65.11c17.49,18.46,38.5,27.69,63.08,27.69h117.56v55.33H16037.78z
			"/>
	</g>
	<g>
		<path id="path53_00000047782219069699946940000001247691809836058008_" class="st0" d="M8095.22,6527.07l-999.43-2465.14h559.53
			L8136.79,5384l484.43-1325.25h43.2L9151.98,5384l470.56-1325.25h516.33l-986.89,2468.32h-35.19l-495.57-1325.25l-484.43,1325.25
			H8095.22z"/>
	</g>
	<g>
		<path id="path55_00000085963817118661716410000011161835915643974786_" class="st0" d="M897.13,6494.17
			c-23.8-21.96-35.72-53.46-35.72-94.48v-266.33c0-41.01,11.92-72.54,35.72-94.47c23.87-21.93,58.39-32.91,103.8-32.91
			c45.32,0,79.91,10.98,103.7,32.91c23.77,21.93,35.72,53.46,35.72,94.47v43.36h-88.47v-48.45c0-33.28-16.11-49.92-48.45-49.92
			c-32.27,0-48.45,16.64-48.45,49.92v277.21c0,32.86,16.18,49.21,48.45,49.21c32.34,0,48.45-16.34,48.45-49.21v-99.17h-46.72v-72.38
			h135.19v165.75c0,41.01-11.94,72.52-35.72,94.48c-23.8,21.93-58.39,32.91-103.7,32.91C955.52,6527.08,921,6516.1,897.13,6494.17"
			/>
	</g>
	<g>
		<path id="path57_00000180367887383669059330000016112380547781313460_" class="st0" d="M1200.64,6013.18h93.51v506.67h-93.51
			V6013.18z"/>
	</g>
	<g>
		<path id="path59_00000088826761339387709000000003557474702577271697_" class="st0" d="M1363.94,6013.19h247.45v72.38h-153.94
			v141.15h120.73v72.38h-120.73v220.76h-93.51V6013.19z"/>
	</g>
	<g>
		<path id="path61_00000044859771073015527370000004406267959357736327_" class="st0" d="M1737.95,6085.57h-97.74v-72.38h289.06
			v72.38h-97.74v434.29h-93.58V6085.57z"/>
	</g>
	<g>
		<path id="path63_00000181074011342652095030000001508762444389349255_" class="st0" d="M2183.49,6085.57h-97.74v-72.38h289.06
			v72.38h-97.74v434.29h-93.58V6085.57z"/>
	</g>
	<g>
		<path id="path65_00000153664081013391092510000017786200690342287547_" class="st0" d="M2547.45,6230.33
			c18.69,0,32.7-4.12,42.05-12.29c9.32-8.26,14.02-21.96,14.02-41.31v-39.03c0-18.32-3.82-31.65-11.44-39.82
			c-7.69-8.19-19.7-12.31-36.13-12.31h-42.55v144.76H2547.45z M2419.88,6013.19h138.57c48.17,0,83.38,9.5,105.43,28.58
			c22.14,19.06,33.21,48.38,33.21,87.89v31.16c0,52.66-20.41,85.94-61.24,99.91v1.4c22.67,5.82,38.66,17.68,48.01,35.49
			c9.34,17.91,14.11,41.75,14.11,71.67v89.02c0,14.5,0.51,26.19,1.63,35.12c1.13,8.98,3.98,17.74,8.47,26.42h-95.14
			c-3.45-8.17-5.71-15.9-6.84-23.2c-1.1-7.2-1.73-20.25-1.73-39.01v-92.7c0-23.13-4.42-39.33-13.14-48.45
			c-8.81-9.21-23.96-13.79-45.5-13.79h-32.34v217.14h-93.51V6013.19z"/>
	</g>
	<g>
		<path id="path67_00000013890336825541420560000010033674268191915917_" class="st0" d="M2936.86,6351.9l-41.61-250.42h-1.73
			l-40.83,250.42H2936.86z M2834.88,6013.19h126.63l96.96,506.67h-93.51l-17.03-100.57v1.38h-106.3l-16.96,99.19h-86.74
			L2834.88,6013.19z"/>
	</g>
	<g>
		<path id="path69_00000091013759030727466490000000372800294173557166_" class="st0" d="M3244.69,6447.47
			c15.33,0,27.07-3.82,35.3-11.55c8.22-7.73,12.27-20.32,12.27-37.63v-263.54c0-17.38-4.05-29.9-12.27-37.63
			c-8.24-7.73-19.98-11.55-35.3-11.55h-47.66v361.9H3244.69z M3103.54,6013.19h142.87c46.44,0,81.31,10.61,104.58,31.81
			c23.18,21.29,34.87,52.43,34.87,93.37v256.25c0,41.01-11.69,72.15-34.87,93.37c-23.27,21.29-58.13,31.88-104.58,31.88h-142.87
			V6013.19z"/>
	</g>
	<g>
		<path id="path71_00000034052841038089113830000012851136877522402438_" class="st0" d="M3448.73,6013.18h93.51v506.67h-93.51
			V6013.18z"/>
	</g>
	<g>
		<path id="path73_00000096044669212048850730000010353254426233437069_" class="st0" d="M3611.94,6013.19h117.37l90.91,303.31h1.73
			v-303.31h83.31v506.67h-96.02l-112.29-369.84h-1.7v369.84h-83.31V6013.19z"/>
	</g>
	<g>
		<path id="path75_00000183229567830572955900000013354822407412447663_" class="st0" d="M4003.94,6494.17
			c-23.8-21.96-35.72-53.46-35.72-94.48v-266.33c0-41.01,11.92-72.54,35.72-94.47c23.87-21.93,58.39-32.91,103.8-32.91
			c45.32,0,79.91,10.98,103.7,32.91c23.77,21.93,35.72,53.46,35.72,94.47v43.36h-88.47v-48.45c0-33.28-16.11-49.92-48.45-49.92
			c-32.27,0-48.45,16.64-48.45,49.92v277.21c0,32.86,16.18,49.21,48.45,49.21c32.34,0,48.45-16.34,48.45-49.21v-99.17h-46.72v-72.38
			h135.19v165.75c0,41.01-11.94,72.52-35.72,94.48c-23.8,21.93-58.39,32.91-103.7,32.91
			C4062.33,6527.08,4027.81,6516.1,4003.94,6494.17"/>
	</g>
	<g>
		<path id="path77_00000054246245977530689780000016819735294343532720_" class="st0" d="M4628,6409.12v-117.31h-35.72
			c-21.54,0-37.12,5.02-46.72,14.87c-9.67,9.87-14.43,26.44-14.43,49.57v51.39c0,16.94,3.89,29,11.85,36.22
			c7.94,7.2,19.01,10.82,33.21,10.82C4605.61,6454.69,4622.9,6439.52,4628,6409.12 M4463.93,6497.4
			c-17.56-19.72-26.38-48.47-26.38-86.14v-52.8c0-26.51,5.36-48.74,16.16-66.65c10.73-17.81,28.38-30.84,52.68-39.01v-1.47
			c-22.05-7.73-38.41-20.18-48.86-37.28c-10.47-17.15-15.74-39.24-15.74-66.26v-9.44c0-40.92,11.67-72.06,34.84-93.35
			c23.27-21.22,58.13-31.83,104.67-31.83h107.09v72.38h-105.45c-15.3,0-27.06,3.84-35.28,11.58c-8.22,7.73-12.29,20.25-12.29,37.63
			v31.14c0,19.31,4.67,33.07,14.02,41.24c9.34,8.24,23.36,12.29,42.12,12.29h36.5v-56.41h91.85v56.41h26.4v72.38h-26.4v166.49
			c0,14.5,0.53,26.21,1.73,35.12c1.13,8.98,3.91,17.74,8.49,26.44h-93.51c-4.58-10.61-7.43-23.87-8.56-39.84h-1.63
			c-10.22,15.97-22.07,27.76-35.28,35.49c-13.35,7.73-29.94,11.55-49.76,11.55C4507.25,6527.07,4481.49,6517.2,4463.93,6497.4"/>
	</g>
	<g>
		<path id="path79_00000165956793751764558360000005191883419861782678_" class="st0" d="M5075.27,6447.47
			c15.3,0,27.06-3.82,35.28-11.55c8.24-7.73,12.29-20.32,12.29-37.63v-263.54c0-17.38-4.05-29.9-12.29-37.63
			c-8.22-7.73-19.98-11.55-35.28-11.55h-47.66v361.9H5075.27z M4934.12,6013.19H5077c46.44,0,81.31,10.61,104.58,31.81
			c23.18,21.29,34.84,52.43,34.84,93.37v256.25c0,41.01-11.67,72.15-34.84,93.37c-23.27,21.29-58.13,31.88-104.58,31.88h-142.88
			V6013.19z"/>
	</g>
	<g>
		<path id="path81_00000032632674552099490210000014967823982865801091_" class="st0" d="M5279.31,6013.19h255.07v72.38H5372.8
			v133.88h128.47v72.38H5372.8v155.65h161.59v72.38h-255.07V6013.19z"/>
	</g>
	<g>
		<path id="path83_00000137090200909326174850000002467461719094129824_" class="st0" d="M5608.34,6494.17
			c-23.18-21.96-34.87-53.46-34.87-94.48v-28.93h88.49v34.73c0,32.86,16.09,49.21,48.45,49.21c15.83,0,27.94-3.98,36.16-11.92
			c8.22-7.96,12.29-20.85,12.29-38.76c0-21.2-5.64-39.88-16.96-56.09c-11.42-16.13-32.36-35.56-62.97-58.25
			c-38.57-28.95-65.48-55.14-80.78-78.57c-15.31-23.34-22.92-49.76-22.92-79.22c0-40.07,11.92-71.07,35.72-93
			c23.77-21.93,58.39-32.91,103.7-32.91c44.81,0,78.62,10.98,101.63,32.91c22.92,21.93,34.43,53.46,34.43,94.47v20.97h-88.4v-26.05
			c0-17.38-3.98-30.06-11.94-38c-7.96-7.96-19.54-11.92-34.84-11.92c-31.23,0-46.79,16.11-46.79,48.45
			c0,18.32,5.78,35.49,17.45,51.39c11.6,15.9,32.7,35.28,63.34,57.95c39.1,28.93,66.08,55.21,80.78,78.87
			c14.71,23.64,22.14,51.39,22.14,83.27c0,41.45-12.11,73.35-36.16,95.51c-24.14,22.23-59.08,33.28-104.99,33.28
			C5665.88,6527.08,5631.61,6516.1,5608.34,6494.17"/>
	</g>
	<g>
		<path id="path85_00000170969565709458884090000015512863670194018954_" class="st0" d="M5905.88,6013.18h93.49v506.67h-93.49
			V6013.18z"/>
	</g>
	<g>
		<path id="path87_00000083057481059778528590000013924591210645935006_" class="st0" d="M6098.07,6494.17
			c-23.77-21.96-35.72-53.46-35.72-94.48v-266.33c0-41.01,11.94-72.54,35.72-94.47c23.89-21.93,58.39-32.91,103.8-32.91
			c45.32,0,79.93,10.98,103.7,32.91c23.8,21.93,35.72,53.46,35.72,94.47v43.36h-88.47v-48.45c0-33.28-16.11-49.92-48.45-49.92
			c-32.27,0-48.45,16.64-48.45,49.92v277.21c0,32.86,16.18,49.21,48.45,49.21c32.34,0,48.45-16.34,48.45-49.21v-99.17h-46.72v-72.38
			h135.19v165.75c0,41.01-11.92,72.52-35.72,94.48c-23.77,21.93-58.39,32.91-103.7,32.91
			C6156.46,6527.08,6121.96,6516.1,6098.07,6494.17"/>
	</g>
	<g>
		<path id="path89_00000031187039268706633050000016020630517335482008_" class="st0" d="M6401.59,6013.19h117.37l90.91,303.31h1.73
			v-303.31h83.29v506.67h-96.02l-112.27-369.84h-1.73v369.84h-83.29V6013.19z"/>
	</g>
	<g>
		<path id="path91_00000136376014109600916640000000168697684364234897_" class="st1" d="M904.74,4058.74h306.51L1352.92,5383h5.82
			l150.29-1324.26H1856L2006.4,5383h5.73l141.68-1324.26h274.73l-205.27,1722.97h-396.15l-144.55-1161.78h-5.82l-144.55,1161.78
			h-422.16L904.74,4058.74z"/>
	</g>
	<g>
		<path id="path93_00000006671866728956457620000001735454740977149870_" class="st1" d="M2590.42,4058.73h318.06V5781.7h-318.06
			L2590.42,4058.73z"/>
	</g>
	<g>
		<path id="path95_00000010289663660596787030000008811968370489966213_" class="st1" d="M3145.45,4058.74h453.92l202.44,1233.15
			h5.82l202.32-1233.15h454.03v1722.97H4163.2V4477.17h-5.73l-231.32,1304.54h-266.03L3428.8,4477.17h-5.73v1304.54h-277.63V4058.74
			z"/>
	</g>
	<g>
		<path id="path97_00000090977687793661706250000014486987406624695704_" class="st1" d="M5293.74,5210.67l-141.68-851.66h-5.73
			l-138.82,851.66H5293.74z M4946.77,4058.75h430.86l329.57,1722.97h-317.99l-57.86-342.11v4.88h-361.42l-57.79,337.23H4617.2
			L4946.77,4058.75z"/>
	</g>
	<g>
		<path id="path99_00000022538358198349262030000018173988808316774064_" class="st1" d="M5860.44,4058.74h318.08v1476.87h523.38
			v246.1h-841.46V4058.74z"/>
	</g>
	<g>
		<path id="path101_00000005978964199374891880000016754258657041065105_" class="st1" d="M8831.45,4061.93l314.01,871.52
			l308.3-874.72L8831.45,4061.93z"/>
	</g>
	<g>
		<path id="path103_00000020373937247676709580000018384582375009163960_" class="st1" d="M8928.5,6533.53l-314.03-871.52
			l-308.3,874.72L8928.5,6533.53z"/>
	</g>
	<g>
		<path id="path105_00000082328451747509924920000018208602783026416003_" class="st1" d="M7838.02,4061.93l314.01,871.52
			l308.3-874.72L7838.02,4061.93z"/>
	</g>
</g>
</svg>
